# xmcd
# 
# Track frame offsets:
#     150
#     14004
#     30892
#     55579
#     69526
#     84712
#     102432
#     119014
#     142485
#     168705
#     182437
#     206898
# 
# Disc length: 2974
# 
# Revision: 0
# Processed by: cddbd v1.5.2PL0 Copyright (c) Steve Scherf et al.
# Submitted via: fre:ac v1.0.17
# 
DISCID=b20b9c0c
DTITLE=The Charlie Daniels Band - Fiddle Fire (25 Years Of The Charlie Daniels Band)
DYEAR=1998
DGENRE=Country
TTITLE0=Texas
TTITLE1=The Devil Went Down To Georgia
TTITLE2=High Lonesome
TTITLE3=Fais Do Do
TTITLE4=Boogie Woogie Fiddle Country Blues
TTITLE5=The South's Gonna Do It
TTITLE6=Drinkin' My Baby Goodbye
TTITLE7=Fiddle Fire
TTITLE8=The Fiddle Player's Got The Blues
TTITLE9=Layla
TTITLE10=Orange Blossom Special
TTITLE11=Talk To Me Fiddle
EXTD=YEAR: 1998 ID3G:   2
EXTT0=
EXTT1=
EXTT2=
EXTT3=
EXTT4=
EXTT5=
EXTT6=
EXTT7=
EXTT8=
EXTT9=
EXTT10=
EXTT11=
PLAYORDER=
